<?xml version="1.0" standalone="no"?>
<!DOCTYPE svg PUBLIC "-//W3C//DTD SVG 20010904//EN"
 "http://www.w3.org/TR/2001/REC-SVG-20010904/DTD/svg10.dtd">
<svg version="1.0" xmlns="http://www.w3.org/2000/svg"
 width="2100.000000pt" height="2100.000000pt" viewBox="0 0 2100.000000 2100.000000"
 preserveAspectRatio="xMidYMid meet">
<metadata>
Created by potrace 1.11, written by Peter Selinger 2001-2013
</metadata>
<g transform="translate(0.000000,2100.000000) scale(0.100000,-0.100000)"
fill="#000000" stroke="none">
<path d="M9934 16209 c-2 -3 -37 -6 -79 -5 -41 1 -75 -2 -75 -7 0 -4 -12 -7
-27 -6 -16 1 -53 -2 -83 -5 -72 -10 -136 -16 -185 -19 -22 -1 -42 -5 -45 -9
-3 -3 -25 -8 -50 -11 -25 -3 -73 -10 -108 -16 -35 -7 -68 -9 -74 -5 -7 4 -8 3
-4 -4 5 -8 -2 -12 -18 -13 -51 -3 -61 -4 -74 -13 -7 -4 -16 -6 -19 -3 -2 3
-23 -1 -46 -9 -23 -8 -47 -12 -54 -10 -7 3 -13 2 -13 -3 0 -11 -109 -33 -123
-24 -6 4 -7 1 -2 -7 6 -10 3 -12 -13 -8 -12 3 -22 2 -24 -3 -2 -6 -17 -12 -33
-14 -17 -2 -31 -4 -32 -6 -2 -1 -6 -2 -10 -4 -5 -1 -16 -5 -27 -10 -10 -4 -31
-8 -46 -9 -15 -1 -25 -5 -22 -10 3 -5 -2 -7 -11 -3 -10 4 -17 2 -17 -4 0 -6
-9 -9 -20 -6 -11 3 -18 2 -15 -2 6 -11 -73 -33 -87 -25 -6 4 -8 3 -4 -4 5 -9
-37 -26 -69 -27 -5 0 -13 -4 -16 -8 -3 -5 -12 -10 -20 -12 -8 -1 -24 -6 -36
-10 -12 -4 -25 -6 -29 -5 -4 1 -10 -4 -14 -10 -4 -7 -19 -13 -33 -13 -14 -1
-23 -5 -20 -9 4 -7 -20 -12 -39 -9 -5 0 -8 -4 -8 -10 0 -6 -9 -9 -20 -6 -11 3
-18 1 -14 -4 4 -7 -8 -13 -18 -8 -2 1 -25 -11 -51 -26 -28 -15 -56 -24 -65
-20 -9 3 -13 3 -9 -1 10 -10 -82 -56 -95 -48 -7 4 -8 2 -4 -4 6 -11 -12 -17
-36 -13 -5 0 -8 -4 -8 -10 0 -6 -7 -8 -16 -5 -8 3 -13 2 -10 -3 7 -11 -22 -23
-36 -14 -6 3 -8 1 -4 -5 3 -6 -4 -14 -16 -18 -13 -4 -23 -5 -23 -3 0 2 -11 -6
-25 -18 -21 -21 -28 -24 -45 -23 -3 1 -13 -6 -22 -15 -8 -9 -22 -14 -29 -11
-8 3 -19 -4 -25 -15 -6 -12 -17 -18 -25 -15 -9 3 -12 1 -9 -4 6 -9 -8 -14 -20
-7 -2 1 -10 -7 -18 -17 -9 -12 -19 -16 -27 -11 -9 5 -11 4 -6 -3 4 -7 2 -12
-3 -12 -20 0 -26 -3 -37 -18 -7 -9 -16 -12 -25 -7 -8 5 -11 4 -6 0 9 -11 -43
-46 -56 -38 -6 3 -7 1 -3 -5 4 -7 -3 -14 -19 -18 -14 -3 -25 -11 -25 -16 0 -6
-8 -7 -17 -4 -10 4 -14 4 -11 0 11 -10 -40 -46 -53 -38 -7 4 -9 3 -6 -3 9 -14
-40 -46 -55 -37 -6 4 -8 3 -5 -3 6 -10 -43 -51 -51 -44 -2 1 -10 -6 -18 -16
-7 -10 -14 -14 -14 -9 0 4 -9 -2 -21 -15 -11 -13 -17 -17 -13 -9 4 8 -5 2 -19
-13 -15 -15 -32 -25 -37 -22 -6 4 -9 3 -8 -2 2 -4 1 -9 -2 -9 -3 -1 -22 -18
-43 -38 -21 -20 -42 -34 -47 -31 -4 3 -11 -2 -14 -11 -3 -8 -11 -12 -17 -8 -7
4 -9 3 -6 -3 8 -13 -57 -65 -68 -55 -5 4 -5 2 -2 -4 7 -12 -41 -51 -56 -46 -4
1 -6 -1 -5 -5 2 -5 -1 -9 -5 -10 -4 -1 -19 -16 -33 -33 -14 -16 -31 -27 -36
-23 -6 3 -8 1 -5 -4 9 -14 -19 -37 -34 -27 -7 4 -9 3 -6 -3 8 -13 -27 -46 -37
-36 -4 5 -6 3 -4 -3 4 -16 -92 -105 -105 -97 -5 3 -7 1 -4 -4 8 -12 -17 -36
-26 -26 -4 3 -7 0 -7 -9 0 -19 -44 -61 -54 -51 -4 5 -6 3 -5 -2 5 -16 -21 -56
-32 -50 -5 4 -8 3 -7 -2 4 -13 -44 -63 -55 -56 -6 3 -7 2 -4 -4 8 -12 -38 -54
-49 -45 -4 4 -4 1 0 -6 9 -15 -53 -84 -68 -75 -5 3 -6 1 -2 -5 4 -7 -8 -27
-28 -47 -20 -19 -37 -39 -38 -43 -2 -4 -6 -6 -10 -5 -5 2 -7 -3 -5 -10 1 -6
-4 -11 -11 -9 -8 1 -11 -2 -8 -7 4 -5 -7 -24 -24 -42 -16 -19 -30 -37 -30 -42
0 -4 -5 -5 -12 -1 -6 4 -8 3 -4 -4 3 -6 -8 -26 -26 -44 -18 -18 -31 -35 -30
-38 0 -3 -8 -15 -18 -28 -11 -12 -20 -27 -20 -32 0 -6 -7 -13 -15 -16 -8 -4
-15 -12 -15 -20 0 -8 -3 -14 -7 -14 -5 0 -19 -18 -32 -40 -14 -21 -29 -36 -34
-33 -6 3 -7 1 -3 -5 8 -14 -23 -64 -35 -56 -5 3 -6 -3 -2 -12 5 -13 3 -15 -7
-9 -9 5 -11 4 -6 -3 4 -6 -2 -20 -14 -32 -11 -11 -20 -22 -20 -25 1 -18 -33
-65 -42 -59 -6 4 -8 3 -5 -4 9 -14 -3 -43 -14 -36 -5 3 -9 2 -8 -3 4 -21 -2
-34 -13 -27 -6 4 -8 3 -5 -3 4 -6 -8 -32 -25 -59 -18 -27 -33 -51 -33 -54 -6
-24 -30 -58 -38 -53 -6 3 -7 1 -3 -5 8 -13 -24 -83 -36 -76 -4 3 -5 -2 -2 -10
4 -9 -1 -18 -10 -22 -9 -3 -14 -10 -11 -14 3 -5 0 -14 -7 -22 -7 -7 -14 -20
-16 -28 -2 -8 -8 -18 -14 -21 -5 -3 -9 -10 -9 -15 2 -19 -11 -44 -19 -39 -5 3
-7 -4 -5 -15 2 -11 -3 -26 -11 -35 -8 -8 -15 -17 -14 -20 1 -21 -1 -25 -12
-19 -7 4 -8 3 -4 -5 4 -6 3 -17 -2 -24 -5 -7 -12 -25 -16 -40 -4 -17 -11 -25
-18 -21 -7 4 -8 3 -4 -4 4 -6 1 -22 -6 -34 -7 -13 -12 -26 -13 -30 0 -3 -3
-10 -7 -14 -5 -4 -8 -16 -8 -26 0 -10 -4 -18 -10 -18 -5 0 -9 -3 -9 -7 4 -22
-2 -44 -10 -39 -5 3 -9 0 -8 -7 1 -32 -4 -48 -13 -42 -5 3 -7 0 -4 -8 3 -8 0
-18 -5 -22 -6 -3 -9 -11 -6 -16 4 -5 2 -9 -4 -9 -6 0 -8 -6 -5 -14 3 -7 -2
-20 -10 -29 -8 -8 -13 -17 -11 -19 3 -2 -3 -28 -13 -56 -10 -29 -21 -49 -25
-46 -3 3 -3 -3 0 -15 3 -13 1 -21 -6 -21 -7 0 -9 -4 -6 -10 3 -5 3 -16 -2 -22
-4 -7 -9 -22 -10 -33 -2 -10 -7 -22 -11 -25 -4 -3 -7 -9 -7 -15 -1 -25 -17
-85 -23 -85 -4 0 -8 -14 -8 -31 -1 -17 -5 -34 -10 -38 -5 -3 -10 -22 -12 -41
-1 -19 -7 -36 -11 -38 -5 -2 -7 -12 -4 -22 3 -11 1 -20 -3 -20 -5 0 -10 -16
-11 -37 -1 -20 -6 -40 -12 -46 -5 -5 -7 -16 -4 -23 3 -8 0 -14 -7 -14 -6 0 -9
-4 -5 -9 8 -14 -6 -92 -16 -85 -5 3 -6 -2 -3 -10 3 -8 3 -20 -1 -27 -4 -6 -9
-36 -12 -67 -2 -30 -8 -61 -13 -67 -5 -7 -8 -14 -5 -17 2 -2 0 -31 -6 -64 -6
-32 -11 -69 -10 -81 0 -13 -3 -23 -7 -23 -4 0 -7 -18 -5 -40 1 -22 -2 -42 -6
-44 -4 -3 -6 -22 -5 -42 2 -20 1 -41 -3 -46 -3 -6 -7 -31 -8 -56 -2 -26 -6
-94 -9 -152 -8 -137 -11 -594 -4 -606 3 -5 5 -42 4 -82 0 -39 2 -73 6 -75 4
-1 8 -45 10 -98 2 -54 6 -95 11 -92 4 2 8 -13 8 -34 3 -68 6 -98 14 -116 4 -9
5 -28 3 -42 -3 -15 -1 -22 5 -18 6 4 8 -4 5 -21 -3 -14 -2 -29 3 -32 4 -2 7
-20 5 -39 -1 -20 2 -31 7 -28 6 4 8 -5 5 -20 -3 -15 -1 -28 4 -29 6 -2 11 -27
11 -55 1 -28 6 -49 11 -46 5 3 7 -8 4 -25 -2 -17 -1 -29 3 -27 10 7 22 -63 13
-77 -4 -6 -3 -8 4 -5 10 7 27 -57 25 -95 0 -10 4 -18 9 -18 6 0 8 -11 6 -25
-3 -13 -1 -22 3 -19 5 3 10 -3 11 -13 1 -10 2 -25 3 -33 1 -8 6 -24 12 -36 7
-11 14 -31 16 -45 2 -13 7 -32 11 -41 4 -9 4 -23 0 -30 -4 -7 -3 -9 2 -5 10 9
47 -91 38 -104 -3 -5 0 -9 7 -9 7 0 9 -8 6 -21 -3 -12 -3 -18 0 -15 9 9 44
-95 36 -107 -3 -6 -2 -7 4 -4 10 6 36 -58 36 -88 0 -8 4 -12 9 -9 7 4 10 -10
7 -32 0 -4 4 -10 9 -13 6 -3 12 -15 14 -26 1 -11 6 -23 10 -26 5 -3 9 -17 10
-31 1 -15 5 -25 9 -22 10 6 40 -76 33 -88 -4 -6 -3 -8 3 -5 10 6 37 -43 33
-59 -1 -4 3 -10 8 -13 6 -3 12 -15 14 -26 1 -11 5 -22 8 -25 16 -16 60 -112
55 -120 -4 -6 1 -10 10 -10 11 0 15 -5 11 -16 -3 -8 -2 -13 3 -10 11 7 23 -22
14 -36 -3 -6 -1 -8 4 -5 13 8 26 -20 16 -35 -3 -6 -2 -8 4 -5 6 4 21 -15 34
-41 13 -26 26 -49 29 -52 16 -15 38 -68 32 -75 -4 -5 -2 -5 4 -2 6 3 18 -7 28
-24 9 -16 14 -29 11 -29 -3 0 4 -10 15 -22 11 -12 18 -28 15 -36 -2 -7 -1 -10
5 -7 11 7 32 -29 22 -40 -4 -5 -1 -5 6 -1 11 7 17 -6 12 -29 -1 -5 2 -7 6 -2
10 9 45 -44 37 -56 -4 -6 -1 -7 7 -2 10 6 12 4 7 -8 -4 -10 -2 -16 6 -14 7 1
11 -6 11 -15 -1 -10 2 -16 6 -13 4 3 13 -2 20 -10 7 -8 9 -15 4 -15 -4 0 0 -6
11 -13 11 -9 15 -19 10 -27 -5 -8 -4 -11 2 -7 12 7 29 -10 35 -33 2 -8 13 -23
26 -33 14 -12 21 -25 17 -35 -3 -9 -3 -13 1 -9 7 7 74 -61 74 -76 0 -4 11 -19
25 -33 14 -14 22 -30 19 -36 -4 -6 -3 -8 3 -5 14 9 47 -29 38 -43 -3 -6 -1 -9
7 -8 7 2 12 -3 10 -10 -1 -8 2 -11 7 -8 5 4 19 -7 30 -23 11 -16 37 -45 57
-65 21 -21 33 -40 28 -47 -4 -7 -3 -9 3 -6 13 8 46 -27 36 -37 -5 -4 -2 -6 6
-4 8 2 20 -7 26 -19 7 -13 14 -21 17 -18 3 3 14 -7 24 -21 10 -15 31 -38 46
-52 15 -14 25 -29 21 -35 -3 -6 -2 -7 4 -4 13 8 56 -37 46 -48 -5 -4 -3 -5 3
-2 14 8 56 -21 48 -34 -3 -5 0 -8 8 -7 7 2 12 -3 10 -9 -1 -7 4 -13 11 -13 18
0 59 -45 50 -54 -5 -4 -3 -7 2 -5 18 4 45 -13 38 -24 -3 -5 -1 -7 5 -4 5 4 21
-6 34 -22 14 -16 34 -34 47 -40 12 -7 19 -16 16 -22 -4 -5 -1 -8 7 -7 7 2 12
-3 10 -10 -1 -8 2 -11 7 -7 6 3 26 -10 46 -29 19 -19 35 -32 35 -29 0 4 9 -2
20 -12 11 -10 17 -22 13 -28 -3 -6 -1 -7 6 -3 13 9 64 -28 53 -39 -4 -3 -2 -5
3 -3 15 4 56 -27 47 -37 -4 -5 -2 -5 4 -2 6 3 20 -2 30 -11 10 -10 27 -21 37
-25 9 -3 17 -11 17 -17 0 -5 7 -10 15 -10 8 0 15 -4 15 -9 0 -5 9 -11 21 -14
14 -4 18 -10 13 -19 -4 -7 -4 -10 1 -6 11 10 47 -11 40 -22 -3 -6 1 -7 9 -4 9
4 18 -1 22 -10 3 -9 10 -14 14 -11 4 2 19 -6 33 -19 14 -13 28 -21 31 -19 3 3
8 -2 12 -11 3 -9 10 -14 14 -11 4 3 13 -2 20 -10 7 -8 19 -15 26 -15 8 0 14
-4 14 -10 0 -5 7 -10 15 -10 8 0 15 -5 15 -11 0 -5 4 -8 8 -5 5 3 19 -5 33
-17 14 -12 31 -23 39 -25 8 -2 18 -8 21 -14 3 -5 10 -10 15 -10 5 0 8 -4 6
-10 -1 -5 2 -7 8 -3 9 6 50 -11 60 -25 3 -4 22 -15 43 -23 20 -9 37 -21 37
-27 0 -6 4 -9 9 -6 13 9 42 -4 35 -15 -3 -5 -2 -9 3 -8 20 3 34 -2 28 -11 -3
-5 0 -7 8 -4 8 3 21 -1 28 -8 8 -7 21 -14 29 -16 8 -2 18 -9 22 -15 4 -7 8 -8
8 -4 0 4 10 2 23 -5 22 -12 28 -14 48 -17 5 0 7 -6 3 -13 -4 -7 -3 -8 4 -4 6
4 32 -4 57 -18 25 -14 46 -25 48 -24 9 5 46 -15 42 -23 -3 -5 2 -6 11 -2 12 4
15 3 10 -5 -4 -8 -2 -10 8 -6 8 3 25 0 38 -7 13 -7 30 -14 38 -15 8 -2 16 -8
18 -14 2 -5 8 -8 13 -5 4 3 20 -2 34 -11 14 -9 25 -13 25 -10 0 4 10 1 23 -6
12 -6 31 -13 42 -15 11 -2 22 -8 23 -13 2 -6 8 -8 13 -4 5 3 9 2 9 -3 0 -4 10
-9 23 -10 12 0 36 -7 52 -14 34 -14 30 -13 73 -23 18 -4 30 -11 27 -16 -3 -4
4 -6 15 -3 11 3 20 0 20 -6 0 -5 7 -8 15 -5 8 4 15 2 15 -3 0 -5 8 -9 18 -10
34 -2 77 -14 80 -23 2 -4 12 -5 24 -2 13 3 19 1 15 -5 -5 -7 0 -9 13 -6 11 3
20 1 20 -3 0 -5 17 -10 37 -11 21 -1 39 -6 41 -11 2 -6 12 -7 24 -4 13 3 19 1
15 -5 -4 -6 3 -8 18 -5 14 2 25 0 25 -7 0 -5 7 -8 15 -5 8 4 21 1 29 -5 7 -6
16 -8 19 -5 3 3 11 2 18 -2 7 -4 22 -9 33 -10 29 -3 113 -19 126 -24 3 -1 13
-1 24 0 10 1 16 -2 13 -7 -3 -4 23 -9 56 -11 34 -1 63 -6 67 -10 3 -4 16 -7
30 -7 14 1 45 -3 70 -7 69 -12 142 -20 173 -19 16 1 26 -2 24 -6 -3 -5 23 -9
56 -10 34 -1 96 -4 137 -6 119 -8 576 -8 680 -1 52 3 120 7 152 8 31 0 54 4
51 9 -2 4 19 8 46 9 63 2 88 5 171 19 36 6 82 12 102 12 21 1 38 6 38 10 0 5
10 7 23 6 12 -1 30 1 40 6 9 4 24 5 32 1 8 -3 15 -1 15 5 0 6 8 9 18 8 9 -1
24 0 32 3 39 15 173 37 182 32 7 -4 8 -2 4 4 -5 8 1 13 16 14 30 2 40 4 59 12
9 4 33 8 52 9 19 1 32 6 29 11 -3 5 5 7 17 3 13 -3 20 -3 17 1 -9 8 115 43
132 37 8 -3 10 0 6 7 -5 7 -2 9 9 5 9 -3 17 -1 19 5 2 6 18 11 35 12 17 0 29
4 26 9 -2 4 3 8 11 8 19 2 26 4 48 13 9 4 22 8 30 10 7 1 19 5 26 10 7 4 16 6
19 2 3 -3 12 1 20 9 8 8 23 15 34 15 11 0 31 7 44 16 13 9 29 13 35 9 5 -3 10
-2 10 3 0 13 59 34 73 25 6 -3 7 -1 3 5 -7 11 7 16 41 15 7 -1 10 3 7 8 -5 8
17 14 39 10 4 0 7 4 7 11 0 6 3 9 6 5 4 -3 13 1 21 9 9 8 22 13 29 10 8 -3 14
-1 14 5 0 6 7 8 16 5 8 -3 13 -2 10 3 -7 11 22 23 36 14 6 -3 8 -2 5 4 -7 10
42 38 50 29 3 -3 12 2 20 10 8 8 19 12 24 9 5 -4 9 -1 9 5 0 7 7 9 17 6 10 -4
14 -4 10 0 -9 10 62 46 75 38 4 -3 7 0 6 8 -2 7 5 12 14 12 10 -1 16 2 13 6
-5 8 19 20 38 20 4 -1 15 6 23 15 9 8 19 13 24 10 4 -3 11 2 14 11 4 9 13 14
22 10 8 -3 12 -2 9 4 -6 9 2 12 22 9 3 0 10 6 15 15 5 9 13 14 19 11 5 -4 9
-2 9 4 0 10 39 27 53 23 5 -1 6 2 3 7 -5 8 19 24 27 18 2 -1 11 6 21 16 10 9
22 14 28 11 6 -4 8 -2 5 3 -8 12 20 26 34 17 5 -3 8 -1 7 4 -2 6 2 11 7 12 6
1 13 8 18 15 4 8 15 11 24 8 11 -4 14 -2 9 5 -8 13 27 35 39 24 5 -4 5 -2 2 4
-6 10 0 16 31 26 7 2 17 10 64 50 11 10 25 15 31 11 6 -3 7 -1 3 5 -4 7 -3 12
1 12 9 0 27 13 84 58 16 13 34 20 40 16 7 -4 9 -3 5 4 -3 5 12 25 34 42 22 17
40 29 40 25 0 -3 11 6 24 20 15 16 30 24 37 19 7 -4 9 -3 6 3 -8 13 17 36 27
25 4 -4 6 0 4 8 -2 9 4 14 14 14 10 -1 16 2 13 6 -7 11 20 31 30 22 5 -4 5 -2
1 5 -8 14 27 36 39 25 5 -4 5 -2 2 4 -8 14 17 37 28 26 5 -4 5 -2 2 4 -4 6 2
19 13 29 11 10 20 15 20 11 0 -4 23 18 52 49 29 30 58 55 66 55 7 0 11 4 8 9
-6 8 40 45 57 46 4 0 7 5 8 10 1 18 21 35 32 28 5 -3 7 -1 4 4 -8 13 27 46 38
36 4 -5 5 -3 2 3 -8 14 72 106 86 97 5 -3 7 -1 4 4 -8 13 17 36 27 25 4 -4 6
0 4 8 -1 8 2 14 8 13 7 -1 11 5 10 15 0 9 5 16 12 14 6 -1 11 1 10 5 -4 11 44
63 52 58 4 -3 7 3 6 13 0 9 5 16 12 14 8 -1 11 2 8 7 -8 12 18 33 29 23 5 -4
5 -1 1 6 -9 15 32 65 45 56 5 -3 7 1 4 8 -3 7 13 32 35 55 21 24 37 43 33 43
-3 0 0 7 7 15 7 8 17 12 23 8 5 -3 7 -2 4 4 -7 11 37 75 46 68 4 -3 5 -2 2 1
-8 12 16 45 28 38 7 -4 9 -4 5 1 -10 11 11 47 22 40 6 -3 8 0 5 7 -3 7 6 25
19 39 13 14 31 40 40 58 9 17 21 29 25 26 5 -2 8 3 7 13 0 9 5 16 12 14 8 -1
11 2 7 8 -8 13 19 52 30 42 5 -4 5 -2 2 5 -4 6 -1 18 7 26 8 8 12 17 9 21 -3
3 2 8 11 12 9 3 13 10 10 15 -3 5 0 9 5 9 6 0 10 3 9 8 -3 14 14 42 23 36 5
-3 8 -2 7 3 -4 14 13 53 23 53 6 0 8 4 4 9 -3 6 2 14 11 19 9 5 15 12 15 15
-3 21 0 27 11 21 7 -4 8 -3 4 4 -4 7 5 29 19 49 14 21 25 43 25 50 0 7 5 13
12 13 6 0 8 3 5 6 -9 10 12 46 23 39 6 -3 7 1 4 9 -3 9 -1 16 5 16 6 0 10 3 9
8 -4 13 35 91 44 86 4 -3 5 2 2 10 -3 9 -1 16 5 16 6 0 8 6 5 14 -3 7 2 21 11
29 9 9 15 18 14 19 -5 8 14 48 22 48 6 0 7 5 4 10 -3 6 -1 10 5 10 6 0 9 4 6
9 -9 14 5 42 17 34 5 -3 7 -2 4 4 -8 13 23 93 35 93 5 0 7 4 3 10 -3 5 -1 17
5 27 10 17 30 67 36 88 8 31 30 81 37 86 5 3 8 9 7 13 -2 6 11 54 20 71 4 8 7
24 9 41 0 9 6 12 13 8 7 -4 8 -3 4 5 -4 6 4 44 18 84 13 39 28 87 31 105 4 17
10 32 15 32 4 0 6 10 2 22 -3 13 -1 19 5 15 7 -5 9 0 6 13 -3 11 0 20 6 20 5
0 8 7 5 15 -4 8 -1 21 5 29 6 7 8 16 5 19 -3 3 -2 11 2 18 4 7 9 27 11 43 2
17 7 32 11 35 4 4 7 13 7 21 -1 8 1 19 4 25 5 10 6 14 16 85 4 25 10 46 14 48
5 1 6 14 3 27 -2 14 0 25 4 25 5 0 9 12 10 28 0 15 4 45 8 67 14 72 17 90 17
105 0 8 3 22 6 30 3 8 7 31 9 50 5 61 11 105 13 105 1 0 4 20 6 45 2 25 6 79
10 120 13 150 14 190 17 467 2 154 -1 279 -5 276 -4 -3 -7 29 -5 71 2 42 0 76
-4 76 -4 0 -6 23 -5 50 1 28 -2 50 -7 50 -4 0 -6 22 -4 50 3 28 1 47 -5 43 -5
-3 -8 10 -6 28 1 19 -2 42 -6 52 -4 9 -5 29 -3 42 3 14 2 25 -3 25 -4 0 -8 8
-7 18 0 9 -3 35 -7 57 -4 22 -8 51 -10 65 -1 14 -6 33 -10 43 -4 9 -5 26 -2
37 3 11 2 18 -3 15 -9 -6 -22 83 -13 98 4 6 1 7 -6 2 -9 -5 -12 -1 -10 11 1
11 -1 26 -4 34 -9 20 -19 70 -21 98 0 12 -5 22 -10 22 -5 0 -6 3 -3 6 3 4 2
14 -2 23 -9 16 -22 71 -24 104 -1 9 -5 17 -10 17 -5 0 -7 6 -5 12 3 7 -1 23
-8 36 -7 13 -11 34 -9 48 1 13 -2 21 -6 18 -8 -5 -10 1 -13 39 -1 6 -4 14 -8
17 -4 3 -9 15 -11 25 -2 11 -7 27 -10 35 -19 45 -34 97 -31 113 1 9 -2 15 -7
11 -8 -4 -11 9 -8 32 0 4 -4 10 -10 13 -6 4 -12 16 -14 26 -1 11 -6 26 -10 33
-5 6 -5 17 -1 24 4 6 3 8 -3 5 -12 -8 -37 59 -27 74 4 7 3 9 -4 5 -13 -8 -26
29 -16 45 4 8 3 9 -4 5 -7 -4 -12 -2 -12 4 0 6 -9 29 -20 52 -11 22 -17 45
-13 51 3 6 1 7 -4 4 -9 -6 -28 39 -23 52 1 2 -3 7 -10 11 -6 4 -12 16 -13 28
0 11 -4 19 -8 16 -7 -4 -29 51 -29 69 1 4 -6 15 -15 23 -8 9 -13 20 -10 25 4
5 2 9 -3 9 -11 0 -38 60 -34 73 1 5 -2 6 -8 2 -9 -5 -15 15 -11 38 1 5 -3 6
-9 2 -9 -5 -12 1 -9 21 0 4 -3 10 -8 13 -4 3 -14 17 -21 30 -8 13 -22 38 -32
56 -10 18 -16 36 -12 41 4 4 2 4 -4 1 -13 -8 -37 40 -28 55 4 6 2 8 -4 4 -13
-8 -56 60 -46 75 4 8 3 9 -4 5 -13 -8 -36 30 -27 44 4 6 3 9 -2 8 -4 -2 -9 2
-11 7 -2 6 -10 14 -18 18 -8 5 -12 12 -9 17 3 4 -2 11 -11 14 -8 3 -13 10 -10
15 3 5 -1 12 -10 15 -10 4 -14 12 -10 23 4 10 4 14 0 10 -6 -6 -38 29 -39 43
0 2 -10 14 -23 27 -13 13 -20 28 -16 36 4 6 4 9 -1 5 -10 -9 -44 33 -38 48 2
7 -1 15 -8 20 -8 4 -10 3 -5 -4 4 -7 5 -12 3 -12 -10 0 -65 88 -59 95 4 5 1 5
-6 1 -7 -4 -15 0 -19 11 -4 10 -14 23 -22 30 -9 6 -13 15 -9 19 5 4 -2 12 -13
18 -12 6 -20 14 -18 18 2 4 -6 15 -19 23 -12 9 -19 21 -16 27 4 7 2 8 -4 4
-13 -8 -35 28 -24 39 4 5 2 5 -4 2 -14 -8 -47 31 -38 45 4 6 3 8 -3 5 -13 -8
-36 17 -25 28 4 5 2 5 -4 2 -12 -7 -47 25 -39 36 3 4 2 5 -1 2 -8 -5 -50 46
-47 57 2 5 -3 7 -10 5 -6 -1 -11 4 -10 10 2 7 -3 12 -10 10 -6 -1 -11 4 -10
10 2 7 -1 12 -6 10 -13 -3 -62 53 -55 64 3 5 1 8 -3 7 -14 -5 -103 84 -96 95
3 6 2 7 -4 4 -6 -4 -19 1 -29 9 -10 9 -13 12 -5 8 9 -5 12 -3 7 5 -4 6 -11 9
-15 6 -12 -7 -43 30 -34 39 5 4 1 6 -7 4 -8 -2 -14 3 -12 10 1 8 -2 11 -7 8
-5 -3 -21 8 -35 25 -14 17 -26 28 -26 25 0 -3 -9 2 -19 11 -11 9 -17 21 -14
26 3 6 1 7 -5 3 -6 -4 -17 2 -24 14 -7 11 -18 20 -24 20 -16 0 -55 45 -47 54
4 4 0 4 -9 1 -10 -4 -23 3 -34 17 -11 13 -27 27 -36 31 -10 3 -18 14 -18 23 0
10 -3 14 -6 11 -11 -10 -45 13 -38 25 4 7 3 8 -4 4 -7 -4 -12 -2 -12 3 0 6 -4
10 -9 8 -5 -1 -18 9 -30 22 -12 13 -21 21 -21 16 0 -4 -7 -2 -15 5 -8 7 -12
17 -8 23 3 6 1 7 -6 3 -15 -9 -73 32 -65 46 4 7 2 8 -4 4 -12 -7 -94 47 -87
58 3 3 2 4 -1 1 -12 -8 -45 16 -38 27 5 7 2 8 -6 3 -8 -5 -18 -2 -26 9 -7 10
-16 18 -21 19 -4 1 -7 6 -5 10 1 5 -3 5 -9 1 -7 -4 -18 1 -25 10 -7 10 -16 18
-21 19 -4 1 -7 6 -5 10 1 5 -2 6 -8 2 -5 -3 -22 2 -38 12 -15 10 -39 25 -54
32 -15 8 -25 18 -22 23 3 5 2 7 -3 6 -16 -4 -53 14 -48 23 3 5 -2 6 -11 2 -12
-4 -15 -3 -10 6 4 6 4 10 -1 9 -14 -5 -103 44 -97 53 3 5 -3 6 -12 2 -13 -5
-15 -3 -9 7 5 9 4 11 -3 6 -16 -10 -94 32 -86 46 4 6 3 8 -4 4 -13 -8 -63 14
-56 25 3 5 -2 6 -10 3 -9 -3 -16 -1 -16 6 0 6 -4 9 -9 5 -5 -3 -16 2 -25 10
-8 9 -18 16 -21 15 -3 0 -7 1 -10 1 -3 1 -8 2 -12 3 -32 8 -52 19 -48 27 3 5
-1 6 -9 3 -9 -3 -16 -1 -16 6 0 6 -4 9 -9 5 -5 -3 -12 -1 -16 5 -3 5 -15 10
-26 10 -13 0 -18 4 -13 12 4 6 3 8 -3 5 -6 -4 -24 0 -39 8 -16 8 -35 15 -42
15 -7 0 -10 4 -7 10 3 6 -1 7 -9 4 -9 -3 -16 -1 -16 5 0 6 -7 8 -17 4 -12 -5
-14 -3 -8 7 5 8 4 11 -3 6 -14 -9 -105 28 -95 39 4 4 2 5 -5 1 -7 -4 -20 -2
-29 6 -9 7 -18 12 -20 10 -8 -7 -112 32 -106 41 3 5 -3 6 -16 2 -13 -4 -21 -2
-21 5 0 6 -3 9 -8 6 -12 -7 -113 30 -104 39 4 5 2 5 -5 1 -17 -10 -64 4 -56
17 4 6 1 7 -7 2 -6 -4 -31 -2 -54 5 -22 7 -45 14 -51 15 -21 5 -25 7 -57 16
-18 6 -46 13 -63 16 -16 3 -37 9 -46 14 -9 4 -19 5 -23 2 -3 -3 -6 -1 -6 6 0
7 -4 10 -9 7 -12 -8 -72 5 -66 13 2 4 -8 7 -23 7 -43 -1 -132 15 -128 22 2 4
-19 8 -47 9 -28 1 -58 5 -66 9 -9 4 -27 8 -41 9 -14 1 -27 3 -30 5 -3 1 -15 1
-27 0 -13 -1 -23 2 -23 7 0 4 -12 8 -27 9 -83 1 -124 5 -120 12 3 4 -18 8 -46
8 -29 1 -77 4 -107 7 -30 3 -84 7 -120 8 -36 1 -69 4 -74 6 -12 8 -557 9 -562
2z"/>
</g>
</svg>
